<svg xmlns="http://www.w3.org/2000/svg" width="220" viewBox="0 0 91.475 20.631"><path id="Path_1" data-name="Path 1" d="M4.854,17.242a2.6,2.6,0,0,0,.533,1.477,3.6,3.6,0,0,0,2.68.779,4.085,4.085,0,0,0,1.825-.342,1.147,1.147,0,0,0,.13-2.023,22.247,22.247,0,0,0-4.061-1.176,8.457,8.457,0,0,1-3.568-1.572,3.409,3.409,0,0,1-1.039-2.68,4.648,4.648,0,0,1,1.62-3.548,6.507,6.507,0,0,1,4.56-1.483,8.365,8.365,0,0,1,4.546,1.114A4.773,4.773,0,0,1,14.1,11.637H10.2a2.3,2.3,0,0,0-.424-1.189,2.667,2.667,0,0,0-2.187-.793,3.143,3.143,0,0,0-1.812.4,1.141,1.141,0,0,0-.54.93,1.017,1.017,0,0,0,.574.971,24.858,24.858,0,0,0,4.061,1.08,7.458,7.458,0,0,1,3.486,1.654,3.756,3.756,0,0,1,1.148,2.8A4.529,4.529,0,0,1,12.858,21.1a7.74,7.74,0,0,1-5.093,1.4q-3.514,0-5.188-1.483A4.826,4.826,0,0,1,.9,17.242ZM22.542,9.914a2.646,2.646,0,0,0-2.1.848,4.231,4.231,0,0,0-.937,2.3h6.057a3.392,3.392,0,0,0-.937-2.345A2.908,2.908,0,0,0,22.542,9.914Zm0-3.213a7.81,7.81,0,0,1,3.35.7,5.868,5.868,0,0,1,2.461,2.2,7.51,7.51,0,0,1,1.135,3.076,19.867,19.867,0,0,1,.123,2.953h-10.2a3.7,3.7,0,0,0,1.408,3.145,3.317,3.317,0,0,0,1.941.561,2.794,2.794,0,0,0,1.955-.684,3.247,3.247,0,0,0,.725-1.025h3.979a4.943,4.943,0,0,1-1.381,2.693,6.765,6.765,0,0,1-5.359,2.174,7.557,7.557,0,0,1-5.018-1.832q-2.174-1.832-2.174-5.961a8.285,8.285,0,0,1,1.962-5.934A6.708,6.708,0,0,1,22.542,6.7Zm17.223.041a5.752,5.752,0,0,1,3.78,1.21,4.92,4.92,0,0,1,1.47,4.013V22H41.023V12.936a4.136,4.136,0,0,0-.314-1.8,2.212,2.212,0,0,0-2.187-1.148A2.713,2.713,0,0,0,35.8,11.664a5.776,5.776,0,0,0-.383,2.27V22H31.534V7.125h3.76V9.3a6.615,6.615,0,0,1,1.422-1.654A4.941,4.941,0,0,1,39.765,6.742Zm13.614,0a4.806,4.806,0,0,1,2.406.595,4.733,4.733,0,0,1,1.709,1.647V1.875h3.951V22H57.658V19.936a5.5,5.5,0,0,1-1.9,1.928,5.335,5.335,0,0,1-2.652.6,5.538,5.538,0,0,1-4.4-2.112,8.111,8.111,0,0,1-1.784-5.421,9.33,9.33,0,0,1,1.757-6A5.716,5.716,0,0,1,53.379,6.742Zm.848,12.441a2.877,2.877,0,0,0,2.516-1.23,5.436,5.436,0,0,0,.861-3.186,4.886,4.886,0,0,0-1.381-3.91,2.972,2.972,0,0,0-1.969-.711,2.737,2.737,0,0,0-2.509,1.292,5.986,5.986,0,0,0-.8,3.206,5.932,5.932,0,0,0,.813,3.3A2.752,2.752,0,0,0,54.226,19.184Zm15.911-9.27a2.646,2.646,0,0,0-2.1.848,4.231,4.231,0,0,0-.937,2.3h6.057a3.392,3.392,0,0,0-.937-2.345A2.908,2.908,0,0,0,70.137,9.914Zm0-3.213a7.81,7.81,0,0,1,3.35.7,5.868,5.868,0,0,1,2.461,2.2,7.51,7.51,0,0,1,1.135,3.076,19.867,19.867,0,0,1,.123,2.953h-10.2a3.7,3.7,0,0,0,1.408,3.145,3.317,3.317,0,0,0,1.941.561,2.794,2.794,0,0,0,1.955-.684,3.247,3.247,0,0,0,.725-1.025h3.979a4.943,4.943,0,0,1-1.381,2.693,6.765,6.765,0,0,1-5.359,2.174,7.557,7.557,0,0,1-5.018-1.832q-2.174-1.832-2.174-5.961a8.285,8.285,0,0,1,1.962-5.934A6.708,6.708,0,0,1,70.137,6.7Zm7.5,15.3,5.086-7.547L77.858,7.125H82.63l2.488,4.32,2.434-4.32h4.635l-4.895,7.26L92.378,22H87.524l-2.57-4.471L82.37,22Z" transform="translate(-0.902 -1.875)" fill="#000"></path> </svg>
